Coordinates
version=1
nRows=27
nColumns=38
inDegrees=no

Units are S.I. units (second, meters, Newtons, ...)
If the header above contains a line with 'inDegrees', this indicates whether rotational values are in degrees (yes) or radians (no).

endheader
time	pelvis_tilt	pelvis_list	pelvis_rotation	pelvis_tx	pelvis_ty	pelvis_tz	hip_flexion_r	hip_adduction_r	hip_rotation_r	knee_angle_r	ankle_angle_r	subtalar_angle_r	mtp_angle_r	hip_flexion_l	hip_adduction_l	hip_rotation_l	knee_angle_l	ankle_angle_l	subtalar_angle_l	mtp_angle_l	lumbar_extension	lumbar_bending	lumbar_rotation	arm_flex_r	arm_add_r	arm_rot_r	elbow_flex_r	pro_sup_r	wrist_flex_r	wrist_dev_r	arm_flex_l	arm_add_l	arm_rot_l	elbow_flex_l	pro_sup_l	wrist_flex_l	wrist_dev_l
61.58	0.942411	1.45465	0.682425	0.638761	-0.182862	0.799946	0.813611	0.0118747	-0.0931806	1.22141	-0.137718	0	0	0.834511	-0.29861	-0.246961	1.34259	-0.129104	0	0	-0.637241	0.155194	-0.158617	0.56658	-0.193352	0.569745	0.286464	1.31767	0	0	0.210438	-0.43907	0.369605	0.647065	0.860292	0	0
61.59	1.03437	1.46251	0.591709	0.638364	-0.18203	0.803599	0.791993	0.0117152	-0.0936936	1.2109	-0.144076	0	0	0.812729	-0.296611	-0.24915	1.33226	-0.131867	0	0	-0.635869	0.158037	-0.164087	0.586563	-0.214769	0.818858	0.286418	1.05231	0	0	0.216832	-0.45257	0.432812	0.641798	0.790395	0	0
61.6	1.07121	1.46504	0.556009	0.637953	-0.180809	0.806644	0.779115	0.0118657	-0.0937017	1.20066	-0.146856	0	0	0.799987	-0.294483	-0.25049	1.32218	-0.13417	0	0	-0.629897	0.158974	-0.165938	0.583648	-0.214781	0.826155	0.283395	1.04881	0	0	0.214596	-0.452903	0.440612	0.64046	0.783687	0	0
61.61	1.09629	1.46706	0.532089	0.63749	-0.179534	0.809602	0.767621	0.0117239	-0.0932135	1.19033	-0.14976	0	0	0.788588	-0.291728	-0.251583	1.31177	-0.136488	0	0	-0.622384	0.159599	-0.168018	0.580272	-0.21484	0.833321	0.280426	1.04644	0	0	0.211938	-0.453013	0.447795	0.639363	0.778138	0	0
61.62	1.1095	1.46877	0.520129	0.636747	-0.178512	0.812354	0.758091	0.0106066	-0.0924053	1.18039	-0.152836	0	0	0.779135	-0.287119	-0.25136	1.30137	-0.139003	0	0	-0.613021	0.160511	-0.171363	0.577718	-0.214702	0.838983	0.277176	1.04363	0	0	0.208643	-0.452929	0.454179	0.63859	0.772889	0	0
61.63	1.13875	1.47109	0.491229	0.636612	-0.176819	0.815672	0.744649	0.0115903	-0.0913769	1.1682	-0.155721	0	0	0.76537	-0.286409	-0.255312	1.28947	-0.142003	0	0	-0.606359	0.159668	-0.172415	0.573267	-0.214771	0.84225	0.274962	1.04026	0	0	0.205547	-0.453042	0.459367	0.637544	0.768476	0	0
61.64	1.14629	1.47239	0.48491	0.635924	-0.175674	0.81844	0.735648	0.0102199	-0.090915	1.15792	-0.159092	0	0	0.756506	-0.282262	-0.255249	1.27892	-0.144917	0	0	-0.595928	0.160224	-0.175831	0.570207	-0.214595	0.84689	0.271746	1.03861	0	0	0.201136	-0.452977	0.463186	0.637799	0.764017	0	0
61.65	1.16698	1.47373	0.464585	0.635586	-0.174203	0.821588	0.723498	0.0111399	-0.0894929	1.14473	-0.162169	0	0	0.744968	-0.280819	-0.257464	1.26723	-0.148346	0	0	-0.587347	0.160005	-0.177655	0.566189	-0.214667	0.850142	0.269684	1.03717	0	0	0.196715	-0.45291	0.466061	0.63787	0.761271	0	0
61.66	1.19192	1.47582	0.440257	0.635177	-0.172623	0.824787	0.711001	0.0105022	-0.0892595	1.13273	-0.165405	0	0	0.732137	-0.278778	-0.26023	1.25513	-0.151546	0	0	-0.579134	0.159283	-0.180007	0.561871	-0.214922	0.853414	0.268243	1.03695	0	0	0.192031	-0.4527	0.467702	0.638048	0.759066	0	0
61.67	1.21624	1.47786	0.416107	0.634742	-0.170959	0.827999	0.698486	0.010356	-0.0887621	1.12027	-0.168485	0	0	0.719096	-0.276866	-0.263418	1.24295	-0.154587	0	0	-0.570536	0.158349	-0.182451	0.557544	-0.215231	0.855842	0.267058	1.03698	0	0	0.186856	-0.452373	0.468467	0.638024	0.758668	0	0
61.68	1.24067	1.48006	0.391628	0.634262	-0.169204	0.831255	0.685877	0.0098225	-0.0884014	1.10769	-0.17161	0	0	0.705681	-0.274852	-0.267246	1.2306	-0.157748	0	0	-0.561809	0.157012	-0.185098	0.552961	-0.215616	0.858255	0.266128	1.03812	0	0	0.181071	-0.451744	0.46794	0.637981	0.760445	0	0
61.69	1.26809	1.4821	0.3645	0.63375	-0.16743	0.834556	0.672804	0.00877853	-0.0888037	1.09514	-0.174609	0	0	0.692123	-0.272842	-0.270833	1.21801	-0.161065	0	0	-0.553197	0.156025	-0.188225	0.548629	-0.215801	0.860331	0.265189	1.03992	0	0	0.1752	-0.450642	0.465792	0.637545	0.763681	0	0
61.7	1.29544	1.48374	0.337559	0.633258	-0.165659	0.837814	0.659841	0.00803926	-0.0893097	1.08235	-0.177212	0	0	0.678988	-0.271032	-0.274016	1.20541	-0.164244	0	0	-0.544346	0.155303	-0.191329	0.544488	-0.215865	0.861831	0.264074	1.04222	0	0	0.169088	-0.449216	0.461841	0.637308	0.769084	0	0
61.71	1.30994	1.48509	0.32328	0.632816	-0.163817	0.84094	0.648187	0.00746904	-0.0893375	1.06949	-0.178861	0	0	0.667059	-0.269163	-0.27727	1.19277	-0.166624	0	0	-0.534247	0.15417	-0.194321	0.539819	-0.215991	0.862705	0.26325	1.04512	0	0	0.162021	-0.447255	0.454784	0.637318	0.777307	0	0
61.72	1.33256	1.48698	0.301075	0.632354	-0.161964	0.844121	0.635508	0.00644142	-0.0895505	1.05625	-0.181158	0	0	0.654094	-0.266834	-0.280719	1.17982	-0.169236	0	0	-0.52404	0.152775	-0.196444	0.534633	-0.21697	0.866834	0.26236	1.0455	0	0	0.159472	-0.448363	0.46666	0.635376	0.766486	0	0
61.73	1.36626	1.48992	0.268805	0.63175	-0.159991	0.84728	0.622643	0.00270633	-0.0925815	1.04608	-0.183989	0	0	0.639834	-0.263195	-0.284416	1.1669	-0.172287	0	0	-0.514229	0.151145	-0.200284	0.52958	-0.21756	0.871754	0.261079	1.04538	0	0	0.15612	-0.449493	0.477227	0.633843	0.75698	0	0
61.74	1.39528	1.49164	0.240364	0.631222	-0.158132	0.850489	0.609918	0.00134073	-0.0935355	1.03359	-0.18733	0	0	0.62672	-0.260969	-0.287957	1.15401	-0.176035	0	0	-0.504429	0.150112	-0.202817	0.525127	-0.218446	0.876328	0.260087	1.04389	0	0	0.152895	-0.450377	0.486789	0.632875	0.748383	0	0
61.75	1.41613	1.49199	0.219146	0.63082	-0.156372	0.853729	0.597021	0.00340843	-0.0908906	1.01742	-0.1911	0	0	0.6147	-0.260201	-0.291022	1.14072	-0.180286	0	0	-0.494531	0.149715	-0.2036	0.520803	-0.219833	0.881615	0.25966	1.04234	0	0	0.150214	-0.450798	0.495622	0.631931	0.740544	0	0
61.76	1.44042	1.49307	0.194997	0.630444	-0.154471	0.856877	0.584228	0.00367302	-0.0905708	1.00318	-0.194757	0	0	0.601884	-0.258563	-0.294368	1.12719	-0.184456	0	0	-0.484425	0.148757	-0.205148	0.516089	-0.221036	0.886155	0.259172	1.03937	0	0	0.14716	-0.45146	0.50457	0.631099	0.733117	0	0
61.77	1.46064	1.4942	0.174581	0.630116	-0.152528	0.859985	0.571952	0.00389979	-0.0899834	0.989464	-0.198392	0	0	0.58917	-0.257143	-0.298531	1.11357	-0.18868	0	0	-0.474095	0.147457	-0.206323	0.511276	-0.222381	0.890821	0.25878	1.03593	0	0	0.144168	-0.452192	0.514028	0.630338	0.725573	0	0
61.78	1.48465	1.49535	0.150733	0.629648	-0.1506	0.863061	0.559252	0.00352634	-0.089977	0.975245	-0.202112	0	0	0.576284	-0.255313	-0.302547	1.10001	-0.192434	0	0	-0.46399	0.146555	-0.207823	0.506776	-0.223913	0.896849	0.258254	1.03326	0	0	0.141369	-0.452776	0.524036	0.629802	0.716893	0	0
61.79	1.51782	1.4969	0.118609	0.629077	-0.148617	0.866068	0.546387	0.00143222	-0.0921676	0.962756	-0.205738	0	0	0.562749	-0.252575	-0.306237	1.08634	-0.196025	0	0	-0.454158	0.145642	-0.210442	0.502348	-0.225138	0.904138	0.257385	1.03125	0	0	0.138798	-0.45339	0.534288	0.628815	0.707991	0	0
61.8	1.54317	1.49666	0.0929476	0.628634	-0.146842	0.869192	0.533056	0.00323833	-0.0909778	0.946024	-0.210539	0	0	0.550242	-0.251916	-0.309563	1.07225	-0.200789	0	0	-0.444828	0.145786	-0.21101	0.498812	-0.22684	0.912794	0.257052	1.02767	0	0	0.137863	-0.453775	0.546489	0.626366	0.698242	0	0
61.81	1.56702	1.49762	0.0696131	0.628151	-0.144892	0.872125	0.52106	0.00216466	-0.0925597	0.933333	-0.214205	0	0	0.537509	-0.249773	-0.313389	1.05827	-0.204421	0	0	-0.434717	0.144816	-0.213287	0.494767	-0.227925	0.91942	0.256537	1.02442	0	0	0.135465	-0.454003	0.555866	0.624198	0.690787	0	0
61.82	1.58506	1.49745	0.0509872	0.627812	-0.143041	0.875144	0.50815	0.00404681	-0.0918011	0.916672	-0.218179	0	0	0.52527	-0.249108	-0.317145	1.04401	-0.208433	0	0	-0.425089	0.144327	-0.213839	0.491059	-0.229293	0.925469	0.256373	1.02057	0	0	0.133653	-0.453953	0.565035	0.621881	0.682791	0	0
61.83	1.6121	1.49841	0.0244754	0.627339	-0.141103	0.878049	0.495349	0.00303524	-0.0942883	0.902962	-0.22176	0	0	0.512361	-0.246559	-0.320563	1.02992	-0.212194	0	0	-0.415364	0.143179	-0.216166	0.487315	-0.230127	0.931256	0.255606	1.01631	0	0	0.131427	-0.454345	0.574777	0.619976	0.674448	0	0
61.84	1.78232	1.49708	-0.145579	0.626908	-0.1399	0.881714	0.470123	0.00385149	-0.0959305	0.883828	-0.235967	0	0	0.488454	-0.245937	-0.324429	1.01519	-0.219832	0	0	-0.409146	0.145586	-0.218316	0.487717	-0.160619	0.478208	0.153496	1.53429	0	0	0.155126	-0.469025	0.692551	0.606818	0.558842	0	0
